<?xml version="1.0" encoding="UTF-8"?>
<svg width="53px" height="32px" viewBox="0 0 53 32" version="1.1" xmlns="http://www.w3.org/2000/svg" xmlns:xlink="http://www.w3.org/1999/xlink">
    <!-- Generator: sketchtool 53.1 (72631) - https://sketchapp.com -->
    <title>BA58BACA-F8E9-405D-9FB7-04C9DF57CD6B</title>
    <desc>Created with sketchtool.</desc>
    <defs>
        <polygon id="path-1" points="0.0002 0.0001 21.6002 0.0001 21.6002 32 0.0002 32"></polygon>
        <polygon id="path-3" points="0 0.9 19.3999 0.9 19.3999 23.1 0 23.1"></polygon>
    </defs>
    <g id="Page-1" stroke="none" stroke-width="1" fill="none" fill-rule="evenodd">
        <g id="About-2" transform="translate(-390.000000, -5076.000000)">
            <g id="Footer" transform="translate(0.000000, 4993.000000)">
                <g id="logo" transform="translate(390.000000, 83.000000)">
                    <path d="M42.7002,4.9 C39.9002,4.9 37.4002,6.7 36.5002,9.4 C36.4002,9.5 36.3002,10.1 36.3002,10.1 L32.4002,27.2 L41.4002,27.2 C44.5002,27.1 47.2002,25 47.9002,21.9 L51.7002,4.9 L42.7002,4.9 Z" id="Fill-1" fill="#0DB14B"></path>
                    <g id="Group-5" transform="translate(15.000000, 0.000000)">
                        <mask id="mask-2" fill="white">
                            <use xlink:href="#path-1"></use>
                        </mask>
                        <g id="Clip-4"></g>
                        <path d="M12.7002,0.0001 C9.7002,0.0001 7.1002,2.0001 6.3002,4.8001 C6.2002,5.0001 6.2002,5.2001 6.1002,5.4001 L0.0002,32.0001 L9.0002,32.0001 C12.0002,32.0001 14.7002,29.9001 15.4002,27.0001 L21.6002,0.0001 L12.7002,0.0001 Z" id="Fill-3" fill="#F37021" mask="url(#mask-2)"></path>
                    </g>
                    <g id="Group-8" transform="translate(0.000000, 4.000000)">
                        <mask id="mask-4" fill="white">
                            <use xlink:href="#path-3"></use>
                        </mask>
                        <g id="Clip-7"></g>
                        <path d="M10.3999,0.9 C7.4999,0.9 4.8999,2.9 4.0999,5.6 C4.0999,5.7 4.0999,5.7 3.9999,5.8 L3.7999,6.4 L-0.0001,23.1 L9.1999,23.1 C11.8999,23.1 14.3999,21.3 15.2999,18.7 L15.6999,17.1 L19.3999,0.9 L10.3999,0.9 Z" id="Fill-6" fill="#0066B3" mask="url(#mask-4)"></path>
                    </g>
                    <path d="M8.7002,10.4 L8.5002,10.4 C7.8002,10.4 7.2002,10.6 6.7002,11.1 C6.2002,11.5 5.9002,11.9 5.7002,12.5 L3.6002,21.5 L3.7002,21.5 C4.4002,21.5 5.0002,21.2 5.5002,20.8 C6.0002,20.4 6.4002,19.8 6.6002,19.1 L7.0002,17.2 L11.1002,17.2 C11.8002,17.2 12.4002,16.9 12.9002,16.5 C13.4002,16.1 13.8002,15.5 14.0002,14.8 L14.0002,14.7 L7.6002,14.7 L8.0002,12.9 L13.6002,12.9 C14.3002,12.9 14.9002,12.7 15.4002,12.2 C15.9002,11.8 16.3002,11.2 16.5002,10.5 L16.5002,10.4 L8.7002,10.4 Z" id="Fill-9" fill="#FFFFFF"></path>
                    <path d="M29.1001,14.6998 L23.8001,14.6998 L24.2001,12.8998 L29.5001,12.8998 L29.1001,14.6998 Z M31.5001,10.9998 C31.1001,10.5998 30.6001,10.3998 30.1001,10.4998 L22.2001,10.4998 L19.6001,21.5998 L19.7001,21.5998 C20.4001,21.5998 21.0001,21.2998 21.5001,20.8998 C22.0001,20.4998 22.4001,19.8998 22.6001,19.1998 L23.0001,17.1998 L28.4001,17.1998 C29.0001,17.2998 29.7001,17.0998 30.2001,16.6998 C30.8001,16.1998 31.1001,15.5998 31.3001,14.8998 L31.8001,12.8998 C31.8001,12.6998 31.9001,12.5998 31.9001,12.3998 C32.1001,11.7998 31.9001,11.2998 31.5001,10.9998 L31.5001,10.9998 Z" id="Fill-11" fill="#FFFFFF"></path>
                    <path d="M47.6001,11.0001 C47.2001,10.6001 46.7001,10.4001 46.2001,10.5001 L37.9001,10.5001 L37.9001,10.6001 C37.9001,10.8001 37.8001,10.9001 37.8001,11.1001 C37.8001,11.6001 38.0001,12.1001 38.3001,12.4001 C38.7001,12.8001 39.2001,13.0001 39.7001,12.9001 L41.5001,12.9001 L39.5001,21.5001 L39.6001,21.5001 C40.3001,21.5001 40.9001,21.2001 41.4001,20.8001 C41.9001,20.4001 42.3001,19.8001 42.5001,19.1001 L44.0001,12.8001 L48.0001,12.8001 L48.0001,12.7001 C48.0001,12.5001 48.1001,12.4001 48.1001,12.2001 C48.1001,11.8001 47.9001,11.3001 47.6001,11.0001" id="Fill-13" fill="#FFFFFF"></path>
                    <path d="M50.7798,24.9669 L51.1798,24.9669 C51.3798,24.9669 51.5798,24.9669 51.5798,24.6669 C51.5798,24.3669 51.3798,24.3669 51.1798,24.3669 L50.7798,24.3669 L50.7798,24.9669 Z M50.3798,24.0669 L51.1798,24.0669 C51.6798,24.0669 51.9798,24.2669 51.9798,24.6669 C51.9798,25.0669 51.7798,25.1669 51.3798,25.2669 L51.9798,26.2669 L51.5798,26.2669 L50.9798,25.3669 L50.6798,25.3669 L50.6798,26.2669 L50.3798,26.2669 L50.3798,24.0669 Z M52.5798,25.1669 C52.4798,24.3669 51.8798,23.7669 51.0798,23.8669 C50.2798,23.9669 49.6798,24.5669 49.7798,25.3669 C49.7798,26.1669 50.4798,26.6669 51.1798,26.6669 C51.9798,26.6669 52.5798,25.9669 52.5798,25.1669 L52.5798,25.1669 Z M49.1798,25.1669 C49.1798,24.0669 50.0798,23.2669 51.0798,23.2669 C52.1798,23.2669 52.9798,24.1669 52.9798,25.1669 C52.9798,26.2669 52.0798,27.0669 51.0798,27.0669 C50.0798,27.0669 49.1798,26.1669 49.1798,25.1669 L49.1798,25.1669 Z" id="Fill-15" fill="#FFFFFF"></path>
                </g>
            </g>
        </g>
    </g>
</svg>